<svg id="Camada_1" data-name="Camada 1" xmlns="http://www.w3.org/2000/svg" viewBox="0 0 256 321"><defs><style>.cls-1{fill:none;}.cls-2{fill:#e30613;}</style></defs><path class="cls-1" d="M111.71,138h-1.25c-.4,0-.7.25-.95.85l-2.35,7.6H115l-2.35-7.6C112.41,138.2,112.11,138,111.71,138Z"/><path d="M116.71,154.48h10.11V149.3a23,23,0,0,0-2-8L120.51,130a2.33,2.33,0,0,0-2.5-1.65H104.56A2.35,2.35,0,0,0,102,130L97.66,141.3a23.2,23.2,0,0,0-2,8v13.21c0,1.25.55,1.8,1.8,1.8h7.35c1.25,0,1.8-.55,1.8-1.8v-7H115C115.22,154.8,115.76,154.48,116.71,154.48Zm-9.55-8.08,2.35-7.6c.25-.6.55-.85.95-.85h1.25c.4,0,.7.25,1,.85l2.35,7.6Z"/><path class="cls-2" d="M130.44,154.5v0H116.71c-.95,0-1.49.32-1.7,1h.5v7a1.8,1.8,0,0,0,.44,1.32,2.86,2.86,0,0,0,.76.1h10.85c1,0,1.35.3,1.35,1.3a1.53,1.53,0,0,1-1.35,1.8l-6.7,2.1c-4.6,1.4-7.85,3.2-7.85,11v8.6c0,1.25.55,1.8,1.8,1.8h23.8c1.25,0,1.8-.55,1.8-1.8v-5.85c0-1.25-.55-1.8-1.8-1.8H124.36V180c0-1.1.3-1.2,1.3-1.5l6.8-2.15c4.85-1.5,7.81-3.8,7.81-8.85v-2.9C133.58,164,130.44,160.72,130.44,154.5Z"/><path d="M158.49,145.65h-7.75c-1.25,0-1.8.55-1.8,1.8v7.8h-4.85c-1.55,0-2.3-.75-2.3-2.45v-12c0-1.7,1-2.5,3.05-2.5h10.4c1.25,0,1.8-.55,1.8-1.8v-6c0-1.25-.55-1.8-1.8-1.8h-12.5c-8.4,0-12.3,3.25-12.3,10.2V154.5c0,6.22,3.14,9.47,9.83,10.08.77.07,1.59.12,2.47.12h15.75c1.25,0,1.8-.55,1.8-1.8V147.45C160.29,146.2,159.74,145.65,158.49,145.65Z"/></svg>